<?xml version="1.0" encoding="UTF-8" standalone="no"?>
<!-- Created with Inkscape (http://www.inkscape.org/) -->

<svg
   width="120"
   height="120"
   viewBox="0 0 120 120"
   version="1.1"
   id="svg1"
   xmlns="http://www.w3.org/2000/svg"
   xmlns:svg="http://www.w3.org/2000/svg">
  <defs
     id="defs1" />
  <g
     id="layer1">
    <path
       d="M 15.724258,1.4754118 C 11.797379,1.4755726 8.2415417,3.0641799 5.6642474,5.6337338 3.0767628,8.2134476 1.4755735,11.781881 1.4754118,15.724299 1.4751522,21.575648 3.197099,50.048188 3.0065337,56.023463 2.7838532,63.003314 1.6864859,97.457243 1.4830963,103.82073 L 1.5,118.5 h 117 l 0.0169,-13.77059 c 0.18689,-5.870225 -1.26083,-34.757266 -1.07005,-40.731412 0.2142,-6.982407 1.07742,-41.873683 1.07774,-48.260252 C 118.52426,7.8684361 110.7984,1.489241 104.27574,1.4888596 97.75308,1.4884782 85.386004,0.49988275 76.24326,0.5 67.100516,0.50011725 45.001787,2.7723779 36.945537,2.9124653 28.889287,3.0525527 22.091804,1.4754299 15.724258,1.4754118 Z"
       style="fill:#fd0000;fill-opacity:0;stroke:#ff0000;stroke-width:1;stroke-dasharray:none;stroke-opacity:1"
       id="path4" />
  </g>
</svg>
