<?xml version="1.0" encoding="UTF-8" standalone="no"?>
<!-- Created with Inkscape (http://www.inkscape.org/) -->

<svg
   width="120"
   height="120"
   viewBox="0 0 120 120"
   version="1.1"
   id="svg1"
   xmlns="http://www.w3.org/2000/svg"
   xmlns:svg="http://www.w3.org/2000/svg">
  <defs
     id="defs1" />
  <g
     id="layer1">
    <path
       d="M 15.724258,1.4754118 C 7.8644229,1.4755796 1.4757455,7.8625498 1.4754118,15.724299 1.4751634,21.575648 2.5504161,35.009431 2.7587911,46.262403 2.9671661,57.515375 1.4842712,98.88997 1.5,105 c 0.015729,6.11003 3.2534686,14.5 13.5,14.5 10.677435,0 35.863795,-1.43871 47.0396,-1.43877 11.175805,-7e-5 32.282835,0.44678 42.9604,0.43877 10.32762,-0.008 13.5,-10.18347 13.5,-13.5 0,-3.93138 -1.70343,-20.638787 -1.05315,-41.002002 0.2142,-6.982407 1.07774,-41.873683 1.07774,-48.260252 C 118.52458,7.8684361 110.7984,1.489241 104.27574,1.4888596 97.75308,1.4884782 85.386004,0.49988275 76.24326,0.5 67.100516,0.50011725 45.001787,2.7723779 36.945537,2.9124653 28.889287,3.0525527 22.091804,1.4752759 15.724258,1.4754118 Z"
       style="fill:#fd0000;fill-opacity:0;stroke:#ff0000;stroke-width:1;stroke-dasharray:none;stroke-opacity:1"
       id="path4" />
  </g>
</svg>
